<svg xmlns="http://www.w3.org/2000/svg" style="display:none">

  <symbol id="icon" viewBox="0 0 768 1024">
    <path fill="currentColor" d="M704 896v64h-64v64H128v-64H64v-63H0V577h64v-64h64v-64h64v-64h-64v-63h512v63h-64v64h64v64h64v64h64v320h-64zM128 768h64V640h-64zm512-256H512V384H256v128H128v64h512zm0 256h-64v64h-64v64h64v-64h64zM64 192h64v128H64zm640 0v128h-64V192zm-128 64H192v-64h-64v-64h64V65h64v128h256V65h64v63h64v64h-64zM256 0h256v64H256z"/>
  </symbol>
  
  <symbol id="settings" viewBox="0 0 24 24">
    <path fill="currentColor" d="m9.25 22l-.4-3.2q-.325-.125-.612-.3t-.563-.375L4.7 19.375l-2.75-4.75l2.575-1.95Q4.5 12.5 4.5 12.338v-.675q0-.163.025-.338L1.95 9.375l2.75-4.75l2.975 1.25q.275-.2.575-.375t.6-.3l.4-3.2h5.5l.4 3.2q.325.125.613.3t.562.375l2.975-1.25l2.75 4.75l-2.575 1.95q.025.175.025.338v.674q0 .163-.05.338l2.575 1.95l-2.75 4.75l-2.95-1.25q-.275.2-.575.375t-.6.3l-.4 3.2zm2.8-6.5q1.45 0 2.475-1.025T15.55 12t-1.025-2.475T12.05 8.5q-1.475 0-2.488 1.025T8.55 12t1.013 2.475T12.05 15.5"/>
  </symbol>

  <symbol id="download" viewBox="0 0 24 24">
    <path fill="currentColor" d="m12 16l-5-5l1.4-1.45l2.6 2.6V4h2v8.15l2.6-2.6L17 11zm-6 4q-.825 0-1.412-.587T4 18v-3h2v3h12v-3h2v3q0 .825-.587 1.413T18 20z"/>
  </symbol>

  <symbol id="reset" viewBox="0 0 24 24">
    <path fill="currentColor" d="M22 12c0 5.523-4.477 10-10 10S2 17.523 2 12S6.477 2 12 2v2a8 8 0 1 0 4.5 1.385V8h-2V2h6v2H18a9.99 9.99 0 0 1 4 8"/>
  </symbol>

  <symbol id="react" viewBox="0 0 32 32">
    <path fill="#00bcd4" d="M16 12c7.444 0 12 2.59 12 4s-4.556 4-12 4s-12-2.59-12-4s4.556-4 12-4m0-2c-7.732 0-14 2.686-14 6s6.268 6 14 6s14-2.686 14-6s-6.268-6-14-6"/><path fill="#00bcd4" d="M16 14a2 2 0 1 0 2 2a2 2 0 0 0-2-2"/><path fill="#00bcd4" d="M10.458 5.507c2.017 0 5.937 3.177 9.006 8.493c3.722 6.447 3.757 11.687 2.536 12.392a.9.9 0 0 1-.457.1c-2.017 0-5.938-3.176-9.007-8.492C8.814 11.553 8.779 6.313 10 5.608a.9.9 0 0 1 .458-.1m-.001-2A2.87 2.87 0 0 0 9 3.875C6.13 5.532 6.938 12.304 10.804 19c3.284 5.69 7.72 9.493 10.74 9.493A2.87 2.87 0 0 0 23 28.124c2.87-1.656 2.062-8.428-1.804-15.124c-3.284-5.69-7.72-9.493-10.74-9.493Z"/><path fill="#00bcd4" d="M21.543 5.507a.9.9 0 0 1 .457.1c1.221.706 1.186 5.946-2.536 12.393c-3.07 5.316-6.99 8.493-9.007 8.493a.9.9 0 0 1-.457-.1C8.779 25.686 8.814 20.446 12.536 14c3.07-5.316 6.99-8.493 9.007-8.493m0-2c-3.02 0-7.455 3.804-10.74 9.493C6.939 19.696 6.13 26.468 9 28.124a2.87 2.87 0 0 0 1.457.369c3.02 0 7.455-3.804 10.74-9.493C25.061 12.304 25.87 5.532 23 3.876a2.87 2.87 0 0 0-1.457-.369"/>
  </symbol>

  <symbol id="tailwind" viewBox="0 0 128 128">
    <path fill="#38bdf8" d="M64.004 25.602c-17.067 0-27.73 8.53-32 25.597c6.398-8.531 13.867-11.73 22.398-9.597c4.871 1.214 8.352 4.746 12.207 8.66C72.883 56.629 80.145 64 96.004 64c17.066 0 27.73-8.531 32-25.602q-9.6 12.803-22.399 9.602c-4.87-1.215-8.347-4.746-12.207-8.66c-6.27-6.367-13.53-13.738-29.394-13.738M32.004 64c-17.066 0-27.73 8.531-32 25.602Q9.603 76.799 22.402 80c4.871 1.215 8.352 4.746 12.207 8.66c6.274 6.367 13.536 13.738 29.395 13.738c17.066 0 27.73-8.53 32-25.597q-9.6 12.797-22.399 9.597c-4.87-1.214-8.347-4.746-12.207-8.66C55.128 71.371 47.868 64 32.004 64m0 0"/>
  </symbol>

  <symbol id="ts" viewBox="0 0 128 128">
    <path fill="#fff" d="M22.67 47h99.67v73.67H22.67z"/><path fill="#007acc" d="M1.5 63.91v62.5h125v-125H1.5zm100.73-5a15.56 15.56 0 0 1 7.82 4.5a20.6 20.6 0 0 1 3 4c0 .16-5.4 3.81-8.69 5.85c-.12.08-.6-.44-1.13-1.23a7.09 7.09 0 0 0-5.87-3.53c-3.79-.26-6.23 1.73-6.21 5a4.6 4.6 0 0 0 .54 2.34c.83 1.73 2.38 2.76 7.24 4.86c8.95 3.85 12.78 6.39 15.16 10c2.66 4 3.25 10.46 1.45 15.24c-2 5.2-6.9 8.73-13.83 9.9a38.3 38.3 0 0 1-9.52-.1a23 23 0 0 1-12.72-6.63c-1.15-1.27-3.39-4.58-3.25-4.82a9 9 0 0 1 1.15-.73L82 101l3.59-2.08l.75 1.11a16.8 16.8 0 0 0 4.74 4.54c4 2.1 9.46 1.81 12.16-.62a5.43 5.43 0 0 0 .69-6.92c-1-1.39-3-2.56-8.59-5c-6.45-2.78-9.23-4.5-11.77-7.24a16.5 16.5 0 0 1-3.43-6.25a25 25 0 0 1-.22-8c1.33-6.23 6-10.58 12.82-11.87a31.7 31.7 0 0 1 9.49.26zm-29.34 5.24v5.12H56.66v46.23H45.15V69.26H28.88v-5a49 49 0 0 1 .12-5.17C29.08 59 39 59 51 59h21.83z"/>
  </symbol>

  <symbol id="pnpm" viewBox="0 0 128 128">
    <path fill="#f8ab00" d="M0 .004V40h39.996V.004Zm43.996 0V40h40V.004Zm44.008 0V40H128V.004Zm0 43.996v39.996H128V44Z"/><path fill="#4c4c4c" d="M43.996 44v39.996h40V44ZM0 87.996v40h39.996v-40Zm43.996 0v40h40v-40Zm44.008 0v40H128v-40Z"/>
  </symbol>

  <!-- podes usarlo con texto CanvasAPI -->
  <symbol id="html" viewBox="0 0 128 128">
    <path fill="#E44D26" d="m27.854 116.354l-8.043-90.211h88.378l-8.051 90.197l-36.192 10.033z"/><path fill="#F16529" d="m64 118.704l29.244-8.108l6.881-77.076H64z"/><path fill="#EBEBEB" d="M64 66.978H49.359l-1.01-11.331H64V44.583H36.257l.264 2.969l2.72 30.489H64zm0 28.733l-.049.013l-12.321-3.328l-.788-8.823H39.735l1.55 17.372l22.664 6.292l.051-.015z"/><path d="M28.034 1.627h5.622v5.556H38.8V1.627h5.623v16.822H38.8v-5.633h-5.143v5.633h-5.623zm23.782 5.579h-4.95V1.627h15.525v5.579h-4.952v11.243h-5.623zm13.039-5.579h5.862l3.607 5.911l3.603-5.911h5.865v16.822h-5.601v-8.338l-3.867 5.981h-.098l-3.87-5.981v8.338h-5.502V1.627zm21.736 0h5.624v11.262h7.907v5.561H86.591z"/><path fill="#fff" d="M63.962 66.978v11.063h13.624L76.302 92.39l-12.34 3.331v11.51l22.682-6.286l.166-1.87l2.6-29.127l.27-2.97h-2.982zm0-22.395v11.064h26.725l.221-2.487l.505-5.608l.265-2.969z"/>
  </symbol> 
</svg>
